<svg xmlns="http://www.w3.org/2000/svg" style="cursor: move;" width="1280" height="579"><g transform="translate(36.03674383633302,11.364032204712117) scale(0.9392297743063523)"><path class="link" style="stroke-width: 0.5px; stroke-opacity: 1; stroke: rgb(80, 80, 80);" marker-end="url(#arrow)" d="M560,209.5, 665,299.5"></path><path class="link" style="stroke-width: 0.5px; stroke-opacity: 1; stroke: rgb(80, 80, 80);" marker-end="url(#arrow)" d="M560,254.5, 665,299.5"></path><path class="link" style="stroke-width: 0.5px; stroke-opacity: 1; stroke: rgb(80, 80, 80);" marker-end="url(#arrow)" d="M560,299.5, 665,299.5"></path><path class="link" style="stroke-width: 0.5px; stroke-opacity: 1; stroke: rgb(80, 80, 80);" marker-end="url(#arrow)" d="M560,344.5, 665,299.5"></path><path class="link" style="stroke-width: 0.5px; stroke-opacity: 1; stroke: rgb(80, 80, 80);" marker-end="url(#arrow)" d="M665,254.5, 770,277"></path><path class="link" style="stroke-width: 0.5px; stroke-opacity: 1; stroke: rgb(80, 80, 80);" marker-end="url(#arrow)" d="M665,299.5, 770,277"></path><path class="link" style="stroke-width: 0.5px; stroke-opacity: 1; stroke: rgb(80, 80, 80);" marker-end="url(#arrow)" d="M560,209.5, 665,254.5"></path><path class="link" style="stroke-width: 0.5px; stroke-opacity: 1; stroke: rgb(80, 80, 80);" marker-end="url(#arrow)" d="M560,254.5, 665,254.5"></path><path class="link" style="stroke-width: 0.5px; stroke-opacity: 1; stroke: rgb(80, 80, 80);" marker-end="url(#arrow)" d="M560,299.5, 665,254.5"></path><path class="link" style="stroke-width: 0.5px; stroke-opacity: 1; stroke: rgb(80, 80, 80);" marker-end="url(#arrow)" d="M560,344.5, 665,254.5"></path><circle r="12.5" class="node" id="0_0" style="fill: rgb(255, 255, 255); stroke: rgb(51, 51, 51);" cx="560" cy="209.5"></circle><circle r="12.5" class="node" id="0_1" style="fill: rgb(255, 255, 255); stroke: rgb(51, 51, 51);" cx="560" cy="254.5"></circle><circle r="12.5" class="node" id="0_2" style="fill: rgb(255, 255, 255); stroke: rgb(51, 51, 51);" cx="560" cy="299.5"></circle><circle r="12.5" class="node" id="0_3" style="fill: rgb(255, 255, 255); stroke: rgb(51, 51, 51);" cx="560" cy="344.5"></circle><text class="text" dy=".35em" style="font-size: 12px;" x="525" y="389.5">Input Layer ∈ ℝ⁴</text><circle r="12.5" class="node" id="1_0" style="fill: rgb(255, 255, 255); stroke: rgb(51, 51, 51);" cx="665" cy="254.5"></circle><circle r="12.5" class="node" id="1_1" style="fill: rgb(255, 255, 255); stroke: rgb(51, 51, 51);" cx="665" cy="299.5"></circle><text class="text" dy=".35em" style="font-size: 12px;" x="630" y="389.5">Hidden Layer ∈ ℝ²</text><circle r="12.5" class="node" id="2_0" style="fill: rgb(255, 255, 255); stroke: rgb(51, 51, 51);" cx="770" cy="277"></circle><text class="text" dy=".35em" style="font-size: 12px;" x="735" y="389.5">Output Layer ∈ ℝ¹</text></g><defs><marker id="arrow" viewBox="0 -5 10 10" markerWidth="7" markerHeight="7" orient="auto" refX="47"><path d="M0,-5L10,0L0,5" style="stroke: rgb(80, 80, 80); fill: rgb(80, 80, 80);"></path></marker></defs></svg>